# xmcd
#
# Track frame offsets: 
#        150
#        25559
#        40413
#        59496
#        75060
#
# Disc length: 1203 seconds
#
# Revision: 0
# Processed by: cddbd v1.5.2PL0 Copyright (c) Steve Scherf et al.
# Submitted via: ExactAudioCopy v0.99pb4
#
DISCID=2d04b105
DTITLE=Pam Rose - Fly
DYEAR=2009
DGENRE=Country
TTITLE0=If I Fly
TTITLE1=Sleep
TTITLE2=My Life
TTITLE3=I'll Still Be Loving You
TTITLE4=Journeys End
EXTD=
EXTT0=
EXTT1=
EXTT2=
EXTT3=
EXTT4=
PLAYORDER=
